<svg id="Слой_1" data-name="Слой 1" xmlns="http://www.w3.org/2000/svg" viewBox="0 0 586.25 586.25"><defs><style>.cls-1{fill:#ffb964;}.cls-2{fill:#4d7ae8;}.cls-3{fill:#3366e0;}.cls-4,.cls-5{fill:#19202e;}.cls-4{stroke:#ff6767;stroke-width:15px;}.cls-4,.cls-8{stroke-miterlimit:10;}.cls-6{fill:#ff9a2d;}.cls-7{fill:#fff;}.cls-8{fill:none;stroke:#19202e;}.cls-9{fill:#5d8be8;}</style></defs><title>logobg</title><circle class="cls-1" cx="293.12" cy="293.12" r="293.12"/><path class="cls-2" d="M1767,2048.07a111.19,111.19,0,0,1-18.25,61.22,212.77,212.77,0,0,1-16.89,40.89,111.79,111.79,0,0,1-85.72,86.16,212.8,212.8,0,0,1-42.26,17.54,111.89,111.89,0,0,1-120.82,0,212.71,212.71,0,0,1-42.25-17.54,111.78,111.78,0,0,1-85.73-86.16,212.1,212.1,0,0,1-16.88-40.89,111.79,111.79,0,0,1,.45-123.14,211.71,211.71,0,0,1,16.16-38.85,111.76,111.76,0,0,1,88.45-88,212.53,212.53,0,0,1,37.53-15.53,111.83,111.83,0,0,1,125.37,0,212.12,212.12,0,0,1,37.52,15.53,111.79,111.79,0,0,1,88.46,88,211.67,211.67,0,0,1,16.15,38.85A111.24,111.24,0,0,1,1767,2048.07Z" transform="translate(-1250.37 -1748.8)"/><path class="cls-3" d="M1739.48,2134.66q-3.49,7.92-7.6,15.52a111.79,111.79,0,0,1-85.72,86.16,212.8,212.8,0,0,1-42.26,17.54,111.89,111.89,0,0,1-120.82,0,212.71,212.71,0,0,1-42.25-17.54,111.78,111.78,0,0,1-85.73-86.16q-4.65-8.61-8.53-17.68a124.74,124.74,0,0,0,12.5,13.42c25.52,23.69,59,35.54,92.42,35.54,23.66,21.95,56.33,35.54,92.41,35.54s68.76-13.59,92.42-35.54c33.45,0,66.9-11.85,92.42-35.54A124.71,124.71,0,0,0,1739.48,2134.66Z" transform="translate(-1250.37 -1748.8)"/><path class="cls-4" d="M1557.56,2061.27c-16.71,2.76-28,0-28,0-90.55-17-73.3-119.83-28-101.13l.06,0,.06,0a94.37,94.37,0,0,0,20.51,6.19l.73.14.59.11.31,0a108.69,108.69,0,0,0,18.75,1.76h2.08a108.58,108.58,0,0,0,18.74-1.76l.62-.11,1-.19a94,94,0,0,0,20.5-6.19l.07,0,0,0C1630.86,1941.44,1648.36,2046.26,1557.56,2061.27Z" transform="translate(-1250.37 -1748.8)"/><circle class="cls-5" cx="305.52" cy="190.39" r="5.36"/><circle class="cls-5" cx="281.55" cy="190.39" r="5.36"/><path class="cls-6" d="M1496.53,2041.54c9.31,6.48,20.84,11.16,34.13,13.65l.32.07c.09,0,10.48,2.4,25.57-.09h0c24.92-4.12,43.7-16.21,53.21-33.82a85,85,0,0,0-113.23,20.19Z" transform="translate(-1250.37 -1748.8)"/><path class="cls-7" d="M1588,1965.81l-.49.22a101.36,101.36,0,0,1-21.42,6.42l-1.07.21-.61.11a116.11,116.11,0,0,1-19.83,1.86h-2.12a116.29,116.29,0,0,1-19.8-1.85l-.48-.09-1.27-.24a99.52,99.52,0,0,1-21.82-6.6h0a21.57,21.57,0,0,0-8.24-1.79l-.54,0a84.63,84.63,0,0,0,29.24,16.14l5-5.06,1.29,6.8a85.52,85.52,0,0,0,19.27,2.19,84.6,84.6,0,0,0,54.36-19.67A19,19,0,0,0,1588,1965.81Z" transform="translate(-1250.37 -1748.8)"/><path class="cls-8" d="M1478,2195.17" transform="translate(-1250.37 -1748.8)"/><path class="cls-9" d="M1382.57,2059.92c-14.34-.69-24.89,12.49-23.28,26.3,1.67,14.38,13.79,24.47,27.4,27.36,4,.83,7.94.86,11.94,1.25,6.28.61,10.31,3.09,14.84,7.34s9.39,7.7,15.66,9.2c12.33,3,26-1.2,33.9-11.2,1.19-1.5-.92-3.64-2.12-2.12a30.72,30.72,0,0,1-31,10.43c-11.83-2.77-17.26-14.95-29.56-16.47-7.33-.9-14.32-.86-21.17-4.05a29.87,29.87,0,0,1-14.52-13.8c-6.59-13.67,1.16-32,17.89-31.24,1.93.1,1.93-2.9,0-3Z" transform="translate(-1250.37 -1748.8)"/><path class="cls-9" d="M1712.43,2043.76c4.32,12.13.57,26.51-9.87,34.36-11.09,8.34-27.28,7.09-37.56-1.91a1.52,1.52,0,0,0-2.56,1.06c.24,17.85-6.26,36.71-20.36,48.31-14.3,11.75-34.75,11.21-47.88-2.13a1.5,1.5,0,0,0-2.12,2.12,38,38,0,0,0,49.47,4.18c16.43-11.77,24.16-32.82,23.89-52.48l-2.56,1.06c11.14,9.76,28.51,11.44,40.8,2.69,11.83-8.41,16.47-24.53,11.64-38.06-.64-1.81-3.54-1-2.89.8Z" transform="translate(-1250.37 -1748.8)"/><path class="cls-9" d="M1368.94,1956.14a27.28,27.28,0,0,0,20,39.73c1.88.3,2.7-2.6.79-2.89a24.29,24.29,0,0,1-18.17-35.33c.88-1.71-1.71-3.23-2.59-1.51Z" transform="translate(-1250.37 -1748.8)"/><path class="cls-9" d="M1716.47,1957.65A24.3,24.3,0,0,1,1698.3,1993c-1.91.29-1.1,3.19.79,2.89a27.28,27.28,0,0,0,20-39.73c-.88-1.72-3.47-.2-2.59,1.51Z" transform="translate(-1250.37 -1748.8)"/><path class="cls-9" d="M1528.79,2179.1a27.29,27.29,0,0,0,44-6.33c.9-1.71-1.69-3.22-2.59-1.51a24.28,24.28,0,0,1-39.3,5.72c-1.35-1.39-3.47.74-2.13,2.12Z" transform="translate(-1250.37 -1748.8)"/><path class="cls-9" d="M1689.68,2147c12,1.9,41.41-.61,39.53-18.69-.2-1.9-3.2-1.93-3,0,.87,8.38-8,12.38-14.68,14.44a46.43,46.43,0,0,1-21,1.36c-1.89-.3-2.7,2.59-.8,2.89Z" transform="translate(-1250.37 -1748.8)"/><path class="cls-2" d="M1729,1932.79s0,0,0,0v.15a2.14,2.14,0,0,0,0,.32c0,.23.07.47.13.71.11.49.23,1,.39,1.49a22.47,22.47,0,0,0,1.11,3,20.82,20.82,0,0,0,3.53,5.44,13.25,13.25,0,0,0,1.18,1.19l1.3,1.1c.46.33,1,.62,1.44.94a8.65,8.65,0,0,0,1.56.83,21.55,21.55,0,0,0,7.22,1.92,23.47,23.47,0,0,1-7.91,1.51,11.65,11.65,0,0,1-2.13-.07c-.71-.08-1.44-.15-2.16-.27l-2.14-.52a20.18,20.18,0,0,1-2.11-.72,29.85,29.85,0,0,1-7.82-4.59,34.54,34.54,0,0,1-3.39-3.14c-.54-.56-1.06-1.15-1.57-1.77-.26-.3-.5-.64-.76-1-.12-.15-.25-.35-.38-.53l-.19-.28c-.07-.1-.16-.27-.24-.4Z" transform="translate(-1250.37 -1748.8)"/><path class="cls-2" d="M1551,1823.82s0,0,0,0l.14,0,.32.07c.24,0,.47.08.72.1.5.05,1,.09,1.54.1a24.27,24.27,0,0,0,3.18-.11,20.92,20.92,0,0,0,6.28-1.65,13,13,0,0,0,1.5-.74l1.45-.89c.45-.33.88-.7,1.35-1.07a9.21,9.21,0,0,0,1.28-1.22,21.76,21.76,0,0,0,4.09-6.25,23.69,23.69,0,0,1-1,8,13,13,0,0,1-.74,2c-.3.64-.6,1.31-.94,2l-1.17,1.87a20.82,20.82,0,0,1-1.35,1.78,29.56,29.56,0,0,1-6.81,6,35.32,35.32,0,0,1-4,2.23c-.7.34-1.43.65-2.17.94l-1.16.41c-.19.07-.41.13-.63.19l-.32.1-.46.1Z" transform="translate(-1250.37 -1748.8)"/><path class="cls-2" d="M1362.42,1960.23l-.27.37-.22.27c-.14.17-.29.35-.43.5-.29.31-.57.63-.86.91-.57.59-1.15,1.15-1.74,1.67a40,40,0,0,1-3.7,3,35.09,35.09,0,0,1-8.21,4.33,25.46,25.46,0,0,1-8.83,1.59,24.83,24.83,0,0,1-8.3-1.47,22.81,22.81,0,0,0,7.6-2,20.37,20.37,0,0,0,6-4.18,26.58,26.58,0,0,0,4.23-5.61,27.67,27.67,0,0,0,1.51-3.1c.23-.52.42-1,.6-1.56.09-.26.15-.51.23-.76a3,3,0,0,0,.09-.35l0-.17s0,0,0-.06Z" transform="translate(-1250.37 -1748.8)"/><path class="cls-2" d="M1366.09,1959.91l-.37.28-.28.2c-.19.12-.38.26-.56.36-.35.22-.71.45-1.07.65-.71.4-1.42.78-2.14,1.12a38.2,38.2,0,0,1-4.35,1.83,34.54,34.54,0,0,1-9.09,1.92,25.07,25.07,0,0,1-8.93-.89,24.4,24.4,0,0,1-7.58-3.68,22.57,22.57,0,0,0,7.84.19,19.94,19.94,0,0,0,6.88-2.38,26.69,26.69,0,0,0,5.61-4.24,27.8,27.8,0,0,0,2.3-2.57c.36-.44.69-.89,1-1.34.16-.22.29-.44.43-.66a2.11,2.11,0,0,0,.18-.32l.08-.15s0,0,0-.06Z" transform="translate(-1250.37 -1748.8)"/><path class="cls-3" d="M1722.61,2179.32s0,0,0,0l-.1.11c-.07.08-.14.14-.22.24s-.3.37-.44.58a14.2,14.2,0,0,0-.85,1.28,23.73,23.73,0,0,0-1.48,2.83,21.08,21.08,0,0,0-1.68,6.26,13.48,13.48,0,0,0-.1,1.67l0,1.7c.07.57.18,1.13.27,1.71a8.38,8.38,0,0,0,.42,1.71,21.45,21.45,0,0,0,3.41,6.65,23.47,23.47,0,0,1-6.42-4.87,11.26,11.26,0,0,1-1.37-1.63c-.41-.58-.85-1.17-1.24-1.78l-1-1.94a19.38,19.38,0,0,1-.87-2,29.63,29.63,0,0,1-1.82-8.89,34,34,0,0,1,.07-4.62c0-.77.15-1.56.26-2.35,0-.39.14-.8.21-1.21,0-.19.1-.42.15-.64l.08-.33c0-.12.09-.3.14-.44Z" transform="translate(-1250.37 -1748.8)"/><path class="cls-2" d="M1500.09,1833.64s0,0,.06,0l.17,0a3,3,0,0,0,.35-.09c.25-.07.5-.13.76-.22.52-.17,1-.36,1.57-.58a27.56,27.56,0,0,0,3.11-1.48,26.25,26.25,0,0,0,5.66-4.17,20.22,20.22,0,0,0,4.24-5.92,22.94,22.94,0,0,0,2-7.57,24.6,24.6,0,0,1,1.38,8.31,25.49,25.49,0,0,1-1.68,8.82,35.1,35.1,0,0,1-4.42,8.16,41.53,41.53,0,0,1-3,3.66c-.54.59-1.11,1.16-1.69,1.73-.29.28-.62.56-.93.85l-.5.43-.27.21-.37.27Z" transform="translate(-1250.37 -1748.8)"/></svg>